<svg id="Layer_1" enable-background="new 0 0 511.178 511.178" height="512" viewBox="0 0 511.178 511.178" width="512" xmlns="http://www.w3.org/2000/svg"><g><path d="m179.022 175.916c48.5 0 87.958-39.458 87.958-87.958s-39.458-87.958-87.958-87.958-87.958 39.458-87.958 87.958 39.458 87.958 87.958 87.958zm0-145.916c31.958 0 57.958 26 57.958 57.958s-26 57.958-57.958 57.958-57.958-26-57.958-57.958 26-57.958 57.958-57.958z"/><path d="m96.24 276.204h33.23v33.23h-33.23z"/><path d="m363.131 277.345c-12.647 0-24.828 2.027-36.245 5.758-1.096-59.29-49.66-107.185-109.207-107.185h-77.317c-60.23 0-109.232 49.001-109.232 109.233v193.084h250.739c21.053 20.38 49.716 32.943 81.262 32.943 64.468 0 116.917-52.449 116.917-116.917s-52.449-116.916-116.917-116.916zm-302.001 7.806c0-43.689 35.544-79.233 79.232-79.233h2.207l21.452 30.542v129.442h30v-129.443l21.452-30.541h2.207c43.688 0 79.232 35.544 79.232 79.233v12.809c-30.6 21.107-50.698 56.398-50.698 96.301 0 19.458 4.784 37.818 13.229 53.974h-198.313zm302.001 196.027c-47.926 0-86.917-38.991-86.917-86.917s38.991-86.917 86.917-86.917 86.917 38.991 86.917 86.917c0 47.927-38.991 86.917-86.917 86.917z"/><path d="m350.654 401.678-21.7-21.699-21.213 21.213 42.913 42.913 67.867-67.867-21.213-21.213z"/></g></svg>