<?xml version="1.0" encoding="iso-8859-1"?>
<!-- Generator: Adobe Illustrator 19.0.0, SVG Export Plug-In . SVG Version: 6.00 Build 0)  -->
<svg version="1.1" id="Capa_1" xmlns="http://www.w3.org/2000/svg" xmlns:xlink="http://www.w3.org/1999/xlink" x="0px" y="0px"
	 viewBox="0 0 512 512" style="enable-background:new 0 0 512 512;" xml:space="preserve">
<g>
	<g>
		<path d="M281.6,0h-256C10.24,0,0,10.24,0,25.6v460.8C0,501.76,12.8,512,25.6,512h332.8c15.36,0,25.6-10.24,25.6-25.6v-384L281.6,0
			z M179.2,102.4H256c15.36,0,25.6,12.8,25.6,25.6c0,15.36-10.24,25.6-25.6,25.6h-76.8c-12.8,0-25.6-10.24-25.6-25.6
			C153.6,115.2,166.4,102.4,179.2,102.4z M76.8,460.8c-12.8,0-25.6-10.24-25.6-25.6c0-12.8,12.8-25.6,25.6-25.6
			c15.36,0,25.6,12.8,25.6,25.6C102.4,450.56,92.16,460.8,76.8,460.8z M76.8,358.4c-12.8,0-25.6-10.24-25.6-25.6
			c0-12.8,12.8-25.6,25.6-25.6c15.36,0,25.6,12.8,25.6,25.6C102.4,348.16,92.16,358.4,76.8,358.4z M76.8,256
			c-12.8,0-25.6-10.24-25.6-25.6c0-12.8,12.8-25.6,25.6-25.6c15.36,0,25.6,12.8,25.6,25.6C102.4,245.76,92.16,256,76.8,256z
			 M76.8,153.6c-12.8,0-25.6-10.24-25.6-25.6c0-12.8,12.8-25.6,25.6-25.6c15.36,0,25.6,12.8,25.6,25.6
			C102.4,143.36,92.16,153.6,76.8,153.6z M307.2,460.8h-128c-12.8,0-25.6-10.24-25.6-25.6c0-12.8,12.8-25.6,25.6-25.6h128
			c15.36,0,25.6,12.8,25.6,25.6C332.8,450.56,322.56,460.8,307.2,460.8z M307.2,358.4h-128c-12.8,0-25.6-10.24-25.6-25.6
			c0-12.8,12.8-25.6,25.6-25.6h128c15.36,0,25.6,12.8,25.6,25.6C332.8,348.16,322.56,358.4,307.2,358.4z M307.2,256h-128
			c-12.8,0-25.6-10.24-25.6-25.6c0-12.8,12.8-25.6,25.6-25.6h128c15.36,0,25.6,12.8,25.6,25.6C332.8,245.76,322.56,256,307.2,256z"
			/>
	</g>
</g>
<g>
	<g>
		<path d="M473.6,0c-20.48,0-38.4,17.92-38.4,38.4v38.4H512V38.4C512,17.92,494.08,0,473.6,0z"/>
	</g>
</g>
<g>
	<g>
		<path d="M435.2,128v243.2c0,20.48,17.92,140.8,38.4,140.8S512,391.68,512,371.2V128H435.2z"/>
	</g>
</g>
<g>
</g>
<g>
</g>
<g>
</g>
<g>
</g>
<g>
</g>
<g>
</g>
<g>
</g>
<g>
</g>
<g>
</g>
<g>
</g>
<g>
</g>
<g>
</g>
<g>
</g>
<g>
</g>
<g>
</g>
</svg>
